<?xml version="1.0" encoding="UTF-8"?><svg id="TrebleClef" xmlns="http://www.w3.org/2000/svg" viewBox="0 0 44.19 125"><defs><style>.cls-1{fill-rule:evenodd;}</style></defs><path class="cls-1" d="M28.38,59.92c7.29-.36,13.52,5.14,15.28,12.82,1.98,8.64-1.61,16.33-9.6,20.66-.95.52-1.3.99-1.05,2.13.89,4.06,1.64,8.14,2.45,12.22.53,2.64.62,5.29-.07,7.9-1.44,5.48-5.34,8.15-10.65,9.13-5.31.99-10.83-1.41-13.5-5.86-2.09-3.48-1.65-8.13,1.05-11.02,2.22-2.38,5.17-3.05,7.78-1.78,2.9,1.42,4.64,4.71,4.12,7.77-.54,3.15-3.12,5.44-6.36,5.66-.25.01-.6-.14-.72.2-.09.27.13.52.29.73.69.87,1.66,1.29,2.69,1.57,6.34,1.76,12.6-2.67,13.05-9.21.13-1.94.04-3.88-.37-5.8-.78-3.63-1.55-7.26-2.31-10.89-.13-.63-.31-.94-1.08-.76-12.92,3.12-23.35-4.68-27.37-15.02C-1.85,70.49.06,61.48,6.02,53.03c3.53-5.01,7.86-9.31,12.12-13.68.63-.65.77-1.2.56-2.07-1.29-5.49-2.12-11.06-1.7-16.71.44-5.94,1.86-11.64,5.24-16.68.98-1.46,2.2-2.69,3.79-3.51,1.2-.62,1.81-.55,2.72.45.48.52.92,1.11,1.26,1.73,3.25,5.96,5.31,12.31,5.21,19.11-.13,9.19-3.69,17.14-9.58,24.1-.26.31-.49.68-.81.91-1.33.95-1.29,2.14-.94,3.59.68,2.85,1.23,5.73,1.76,8.6.16.84.43,1.21,1.32,1.03.46-.08.95,0,1.42,0ZM24.11,93.47c1.56.04,3.05-.25,4.56-.55.91-.18,1.06-.6.87-1.44-.48-2.19-.9-4.4-1.33-6.6-.97-4.91-1.93-9.82-2.9-14.73-.25-1.26-.36-1.3-1.52-.75-1.54.74-2.79,1.83-3.83,3.16-3.41,4.34-2.64,9.84,1.79,12.73.57.37,1.19.67,1.77,1.02.35.21.57.52.42.94-.14.39-.46.6-.87.59-.26,0-.54-.08-.79-.17-6.34-2.34-10.18-9.86-8.3-16.33,1.33-4.58,4.17-7.98,8.41-10.18.65-.34,1.04-.66.87-1.47-.59-2.83-1.17-5.67-1.71-8.51-.16-.84-.34-.97-1.03-.36-2.59,2.32-5.13,4.69-7.41,7.32-3.09,3.56-5.68,7.42-6.91,12.03-1.54,5.79-1.08,11.32,2.71,16.2,3.83,4.92,9.12,6.89,15.19,7.09ZM21.17,36.17c.11.05.23.1.35.16.85-.93,1.72-1.84,2.56-2.77,3.76-4.16,6.69-8.78,7.71-14.4.35-1.91.61-3.85-.14-5.75-.93-2.37-3.03-3.1-5.2-1.81-1.97,1.17-3.14,3.01-4.02,5.03-1.92,4.46-2.75,9.11-2.25,13.96.19,1.88.44,3.77.99,5.59ZM39.1,81.2c.01-3.36-.76-5.76-2.27-7.9-1.99-2.8-4.72-4.34-8.14-4.68-.75-.07-1.08.17-.91.98,1.45,7.1,2.89,14.2,4.3,21.3.16.83.45.78,1.05.37,3.8-2.61,5.83-6.18,5.98-10.08Z"/></svg>